<mxfile host="app.diagrams.net" modified="2024-05-15T11:58:31.670Z" agent="Mozilla/5.0 (Windows NT 10.0; Win64; x64; rv:125.0) Gecko/20100101 Firefox/125.0" etag="mha6wzliuR918VwslTu8" version="24.4.0" type="device">
  <diagram name="Seite-1" id="TgLE3p2710uJ8Vbm9-rd">
    <mxGraphModel dx="1500" dy="809" grid="1" gridSize="10" guides="1" tooltips="1" connect="1" arrows="1" fold="1" page="1" pageScale="1" pageWidth="827" pageHeight="1169" math="0" shadow="0">
      <root>
        <mxCell id="0" />
        <mxCell id="1" parent="0" />
        <mxCell id="viKUG3A4QgBdl7ZwqubR-1" value="" style="rounded=0;whiteSpace=wrap;html=1;strokeColor=none;" vertex="1" parent="1">
          <mxGeometry x="40" y="40" width="600" height="640" as="geometry" />
        </mxCell>
        <mxCell id="2JtdTa_XOzvo2Lkse9Ug-1" value="Die Software kann Tierpatenschaften &lt;br&gt;verwalten. Die Nutzer sollen Patenschaften &lt;br&gt;über das Internet buchen und &lt;br&gt;abbestellen können." style="whiteSpace=wrap;html=1;shape=mxgraph.basic.oval_callout;strokeColor=#006666;spacingBottom=5;" parent="1" vertex="1">
          <mxGeometry x="40" y="40" width="270" height="130" as="geometry" />
        </mxCell>
        <mxCell id="2JtdTa_XOzvo2Lkse9Ug-2" value="Der Zoo braucht ein Profil mit &lt;br&gt;einem Alleinstellungsmerkmal." style="whiteSpace=wrap;html=1;shape=mxgraph.basic.oval_callout;strokeColor=#006666;flipH=0;spacingBottom=7;" parent="1" vertex="1">
          <mxGeometry x="42" y="385" width="270" height="63" as="geometry" />
        </mxCell>
        <mxCell id="2JtdTa_XOzvo2Lkse9Ug-3" value="Die Software soll den Zoo über &lt;br&gt;die Region hinaus bekannt &lt;br&gt;machen." style="whiteSpace=wrap;html=1;shape=mxgraph.basic.oval_callout;strokeColor=#006666;flipH=1;spacingBottom=2;" parent="1" vertex="1">
          <mxGeometry x="390" y="112" width="240" height="80" as="geometry" />
        </mxCell>
        <mxCell id="2JtdTa_XOzvo2Lkse9Ug-4" value="Wir möchten die Besucherzahl &lt;br&gt;des Zoos deutlich erhöhen." style="whiteSpace=wrap;html=1;shape=mxgraph.basic.oval_callout;strokeColor=#006666;spacingBottom=5;flipH=0;" parent="1" vertex="1">
          <mxGeometry x="290.5" y="419" width="269.5" height="63" as="geometry" />
        </mxCell>
        <mxCell id="2JtdTa_XOzvo2Lkse9Ug-5" value="Alle Zoobesucher sollen &lt;br&gt;die Möglichkeit bekommen, Namen für &lt;br&gt;neugeborene Tiere vorzuschlagen." style="whiteSpace=wrap;html=1;shape=mxgraph.basic.oval_callout;strokeColor=#006666;spacingBottom=15;" parent="1" vertex="1">
          <mxGeometry x="70" y="150" width="280" height="90" as="geometry" />
        </mxCell>
        <mxCell id="2JtdTa_XOzvo2Lkse9Ug-6" value="Man kann Führungen &lt;br&gt;durch den Zoo online buchen." style="whiteSpace=wrap;html=1;shape=mxgraph.basic.oval_callout;strokeColor=#006666;spacingBottom=10;flipH=1;" parent="1" vertex="1">
          <mxGeometry x="130" y="330" width="230" height="60" as="geometry" />
        </mxCell>
        <mxCell id="2JtdTa_XOzvo2Lkse9Ug-7" value="Online &lt;br&gt;Eintrittskarten &lt;br&gt;für den Zoo &lt;br&gt;verkaufen" style="whiteSpace=wrap;html=1;shape=mxgraph.basic.oval_callout;strokeColor=#006666;spacingBottom=12;flipH=0;" parent="1" vertex="1">
          <mxGeometry x="245" y="220" width="135" height="100" as="geometry" />
        </mxCell>
        <mxCell id="2JtdTa_XOzvo2Lkse9Ug-8" value="Es sollen umfangreiche Informationen &lt;br&gt;über den Zoo und seine Tiere über das &lt;br&gt;Internet zugänglich gemacht werden." style="whiteSpace=wrap;html=1;shape=mxgraph.basic.oval_callout;strokeColor=#006666;spacingBottom=10;flipH=1;" parent="1" vertex="1">
          <mxGeometry x="339" y="338" width="300" height="94" as="geometry" />
        </mxCell>
        <mxCell id="2JtdTa_XOzvo2Lkse9Ug-9" value="Den Bildungsauftrag des Zoos erfüllen" style="whiteSpace=wrap;html=1;shape=mxgraph.basic.oval_callout;strokeColor=#006666;spacingBottom=5;flipH=1;" parent="1" vertex="1">
          <mxGeometry x="325" y="476" width="315" height="50" as="geometry" />
        </mxCell>
        <mxCell id="2JtdTa_XOzvo2Lkse9Ug-10" value="Zoo in der Region &lt;br&gt;verankern, Bindung der &lt;br&gt;Einwohner an den Zoo erhöhen, &lt;br&gt;Identifizierung mit dem Zoo" style="whiteSpace=wrap;html=1;shape=mxgraph.basic.oval_callout;strokeColor=#006666;spacingBottom=18;" parent="1" vertex="1">
          <mxGeometry x="40" y="238" width="220" height="110" as="geometry" />
        </mxCell>
        <mxCell id="2JtdTa_XOzvo2Lkse9Ug-11" value="Viel deutlicher herausstellen, dass wir &lt;br&gt;viele besondere Tierarten haben, die es in &lt;br&gt;anderen Zoos nicht gibt." style="whiteSpace=wrap;html=1;shape=mxgraph.basic.oval_callout;strokeColor=#006666;spacingBottom=5;flipH=0;" parent="1" vertex="1">
          <mxGeometry x="285.5" y="40" width="294.5" height="84" as="geometry" />
        </mxCell>
        <mxCell id="2JtdTa_XOzvo2Lkse9Ug-12" value="Umfangreiche Unterstützung der &lt;br&gt;Besucher beim Besuchserlebnis" style="whiteSpace=wrap;html=1;shape=mxgraph.basic.oval_callout;strokeColor=#006666;spacingBottom=8;" parent="1" vertex="1">
          <mxGeometry x="60" y="446" width="250" height="75" as="geometry" />
        </mxCell>
        <mxCell id="2JtdTa_XOzvo2Lkse9Ug-13" value="Unsere Website soll umfangreiche &lt;br&gt;Informationen zu den Tieren bereitstellen." style="whiteSpace=wrap;html=1;shape=mxgraph.basic.oval_callout;strokeColor=#006666;spacingBottom=9;flipH=1;" parent="1" vertex="1">
          <mxGeometry x="48" y="610" width="302" height="65" as="geometry" />
        </mxCell>
        <mxCell id="2JtdTa_XOzvo2Lkse9Ug-14" value="Trackingsystem der Besucher, um ihnen &lt;br&gt;mitteilen zu können, wenn das Elefantenhaus oder &lt;br&gt;das Affenhaus gerade zu stark besucht sind." style="whiteSpace=wrap;html=1;shape=mxgraph.basic.oval_callout;strokeColor=#006666;spacingBottom=12;flipH=1;" parent="1" vertex="1">
          <mxGeometry x="269.5" y="523" width="378.5" height="86" as="geometry" />
        </mxCell>
        <mxCell id="2JtdTa_XOzvo2Lkse9Ug-16" value="Ziel ist, den Zoo dauerhaft &lt;br&gt;finanziell gut ausgestattet zu haben &lt;br&gt;und ihm somit eine langfristige &lt;br&gt;Perspektive zu bieten." style="whiteSpace=wrap;html=1;shape=mxgraph.basic.oval_callout;strokeColor=#006666;spacingBottom=8;" parent="1" vertex="1">
          <mxGeometry x="42" y="517" width="250" height="101" as="geometry" />
        </mxCell>
        <mxCell id="2JtdTa_XOzvo2Lkse9Ug-17" value="Auf der Website auf Events wie die Ausleihe &lt;br&gt;eines besonderen Tiers hinweisen" style="whiteSpace=wrap;html=1;shape=mxgraph.basic.oval_callout;strokeColor=#006666;flipH=1;spacingBottom=3;" parent="1" vertex="1">
          <mxGeometry x="328.5" y="601.5" width="310.5" height="70" as="geometry" />
        </mxCell>
        <mxCell id="2JtdTa_XOzvo2Lkse9Ug-18" value="Die Besucher im Zoo &lt;br&gt;über ihre Handys informieren, &lt;br&gt;wenn in ihrer Nähe eine &lt;br&gt;Fütterung startet" style="whiteSpace=wrap;html=1;shape=mxgraph.basic.oval_callout;strokeColor=#006666;spacingBottom=11;flipH=1;" parent="1" vertex="1">
          <mxGeometry x="372.25" y="186" width="223" height="94" as="geometry" />
        </mxCell>
        <mxCell id="2JtdTa_XOzvo2Lkse9Ug-19" value="Warteschlangenverwaltung &lt;br&gt;für den Streichelzoo" style="whiteSpace=wrap;html=1;shape=mxgraph.basic.oval_callout;strokeColor=#006666;flipH=0;spacingBottom=5;" parent="1" vertex="1">
          <mxGeometry x="354" y="274" width="220" height="70" as="geometry" />
        </mxCell>
      </root>
    </mxGraphModel>
  </diagram>
</mxfile>
